<svg id="Layer_1" data-name="Layer 1" xmlns="http://www.w3.org/2000/svg" viewBox="0 0 1430.22 600.3"><defs><style>.cls-1{fill:#050505;}.cls-2{fill:#fefefe;}.cls-3{fill:#161616;}</style></defs><title>smelly-background</title><path class="cls-1" d="M0,860.53c2.09,0,3.69,1.36,5.43,2.23,31.53,15.85,64.7,23.38,99.63,21.68a150.91,150.91,0,0,0,42.6-8.53c9.56-3.34,18.91-7.17,27.59-12.7,14.95-9.54,25.52-22.92,32.62-39.69a109.81,109.81,0,0,0,8.86-37.31c.38-7.1.4-7.08-6.18-6.2-28.63,3.85-56.61.1-84.26-8-15.18-4.43-29.54-11-43.93-17.62a34.06,34.06,0,0,1-4.3-2.62c-.5-.33-1-.81-.63-1.56a1.28,1.28,0,0,1,1.56-.59,26.86,26.86,0,0,1,6.54,1.88c4.17,1.84,8.37,3.64,12.51,5.56a217.86,217.86,0,0,0,83.75,20.46c14.7.56,29.32-.19,43.44-5.18,7.07-2.5,13.51-6.15,18.72-12s5.82-12.65,4.34-20.05c-.27-1.36-1-1.7-2.29-1.63-10,.6-19.92-.83-29.9,0-1.54.12-3.92.75-4.08-1.58s2.28-2,3.81-2.07c9.66-.64,19.33.09,29,0h2.65c-3.92-13.4-10.9-23.21-24.07-27.4a10.06,10.06,0,0,0-9.28,1.36c-3.1,2-6.14,4.06-9.34,5.84a30.14,30.14,0,0,1-23.28,3c-2.17-.59-4.41-1.16-5.81-3.31.77-1.13,1.87-1,2.9-.93a37.6,37.6,0,0,1,5.39.76c7,1.75,13.54.16,19.66-3.39,5.26-3,10.07-7,16-8.54-2-9.25-2.92-18.28-1.11-27.3,1.43-7.11,4.12-13.64,10.12-18a14.05,14.05,0,0,1,3.64-1.9,2.06,2.06,0,0,1,2.17.1c5.26,5,12.11,5.3,18.46,6.49,19,3.58,36.93-.24,53.45-10.87a36.42,36.42,0,0,0,13.76-15.44,31,31,0,0,0,2.75-19c-2.65-14.83-11.15-25.44-21.83-34.54-11.37-9.68-24.51-16.17-37.54-22.83a39,39,0,0,0-13.78-4.26c-10.34-1.13-19.85-5.3-27-13.25-11.2-12.48-15.5-30.25-5.89-46.91a45.54,45.54,0,0,1,13.22-14.81c2.07-1.45,2.53-2.9,1.72-5.13-.49-1.34-1-2.67-1.45-4s-.89-2.36-1.26-3.57-.38-2.31.75-2.95,1.9.23,2.64,1.12c1.45,1.75,2,3.9,2.62,6,1.14,3.78,1.2,3.79,4.6,2.43a49,49,0,0,1,11.41-3c1.68-.22,2.7-.75,3.12-2.7a68.84,68.84,0,0,1,2.39-8.21c.66-1.88,1.43-4.85,3.47-4.25,2.26.67,1.12,3.58.63,5.4-.7,2.6-1.69,5.1-1.85,7.89,2,1.14,3.88,0,5.78,0,3.93,0,7.88-.38,11.74.56,2.26.55,3.53-.23,4.78-2.29a53.13,53.13,0,0,1,5.91-7.82c1.11-1.24,2.72-3.49,4.46-1.73,1.36,1.37-.2,3.16-1.26,4.53-2.17,2.79-4.3,5.61-6.78,8.85,11.74,4.24,19.7,12.15,24,23.95,4.36,12,2.8,23.47-3.19,34.65,4.51,2,10,1.57,13.29,7.11-3.63.36-6-.77-8.42-1.48-1.75-.5-3.52-.91-5.28-1.36a2.36,2.36,0,0,0-2.83.9c-2.26,3.39-5.27,6.07-7.94,9,1.18,2.17,3.57,2.84,4.31,5.08.23.7.72,1.5.09,2.22s-1.45.42-2.09.09a19,19,0,0,1-4.41-3.31,2.41,2.41,0,0,0-3.26-.49c-6.66,4.14-14,6.35-22,7.86,2,1.92,4.09,2.53,5.94,3.49,12.34,6.38,24.52,13.06,35,22.59,8.1,7.34,14.89,15.75,18.53,26.58,4.94,14.74,2.65,27.89-7.87,39.15C309,656,298.37,660.74,287,664a57.51,57.51,0,0,1-7.07,1.65c-1.86.3-2.4,1.19-2.44,3.14-.24,10.85-.58,21.69-1,32.54-.62,18.18-.79,36.39-2.08,54.52-1.51,21.18-2.37,42.37-2.88,63.58-.62,25.7.41,51.39.82,77.08a6.49,6.49,0,0,0,.54,3.25H150.54c.1-6.65.47-13.31,0-20-2.41-.16-4.29,1-6.29,1.56a169.37,169.37,0,0,1-22.93,5.23c-2.1.29-3.7.68-3.43,3.69a94.67,94.67,0,0,1,0,9.53H0ZM300.34,526.44c-1.44-.71-2.79-.21-4.1-.18a29.85,29.85,0,0,1-13.63-3c-6.35-3-10.22-8.28-11.92-15.3s1.81-15.13,8.39-19.65A31.06,31.06,0,0,1,294.13,483a1.6,1.6,0,0,0-.81-1.78c-10.31-8.45-22-9.74-34.39-7.36-1.29.25-2.52.95-3.91,1-14.24.38-24.93,7.69-32.9,19.59-4.23,6.32-6.87,13.56-6,21.56a41.91,41.91,0,0,0,6.46,18.13,18.42,18.42,0,0,0,10.65,8.26,174.28,174.28,0,0,1,21.28,8.09,9.25,9.25,0,0,0,3.94,1c15-.28,28.16-5.21,38-17.7C298.11,531.65,300.23,529.57,300.34,526.44Z" transform="translate(0 -299.51)"/><path class="cls-1" d="M0,378.75c2.46-.33,4.51-1.77,6.69-2.82,19.68-9.47,40.46-14.72,61.72-18.14a306.92,306.92,0,0,1,61.43-3.93c35.86,1.47,69.78,10.55,101.22,29.14,1.56.93,3.34,1.66,4.33,3.37,1.26,2.16,3.25,3.28,5.25,4.39a101,101,0,0,1,33.52,30c4.3,6,7.88,12.43,9.36,19.91.35,1.77,1.25,4.4-.79,5.09-2.6.88-3.08-2.26-3.54-4-5.08-18.91-17.77-31.32-32.15-42.24-3.54-2.68-7.49-4.76-11.22-7.16a2.93,2.93,0,0,0-3.7-.09c-17.21,11.46-36.39,17.65-55.88,22.81A977.3,977.3,0,0,1,61.48,437.92c-20.41,2.87-40.91,4-61.48,2.13Z" transform="translate(0 -299.51)"/><path class="cls-2" d="M117.89,899.8a94.67,94.67,0,0,0,0-9.53c-.27-3,1.33-3.4,3.43-3.69a169.37,169.37,0,0,0,22.93-5.23c2-.57,3.88-1.72,6.29-1.56.46,6.7.09,13.36,0,20Z" transform="translate(0 -299.51)"/><path class="cls-1" d="M82,557.15c-3.17-2.08-6.48-3.64-9.35-5.95C62.09,542.69,55.8,531.56,56,517.41c.19-12.57,4.71-23.54,14.17-31.77,3.17-2.75,3.19-2.78.43-6.24-1.84-2.31-3.92-4.41-5.36-7-.5-.92-1.4-1.89-.16-2.92,1.06-.88,2.1-.33,2.87.39a58.24,58.24,0,0,1,6.54,7.87c2.25,3,2.3,3,6,1.68,3-1.12,6.2-1.3,9.35-1.66,4.47-.52,4.43-.55,3.85-5.15-.29-2.36-.5-4.75-.62-7.13-.05-.93.15-2,1.22-2.3,1.35-.39,1.89.65,2.36,1.68,1.22,2.64,1.43,5.53,1.67,8.38.2,2.34,1.06,3.28,3.44,3a46.22,46.22,0,0,1,12.21,0c2.63.36,3.58-.86,3.78-3.29.2-2.59,1.25-4.91,2-7.33a13.09,13.09,0,0,1,.9-2.19,2,2,0,0,1,2.23-1.25,2,2,0,0,1,1.16,2.33c-.53,3.14-1.16,6.25-1.86,9.35s-.73,3,2.09,3.66c7.68,1.9,15.18,4.36,21.66,9.25,12.61,9.52,19,22.47,17.5,38.91-1,10.42-6.84,18.16-14.7,24.14-11.8,9-25.16,12.71-39.56,12.93-2.2,0-5-1.25-6.48.54-1.27,1.51-.3,4.28-.45,6.48-.12,1.75-.27,3.49-.47,5.22-.1.77-.24,1.68-1.2,1.76S99,575.91,98.6,575a13.35,13.35,0,0,1-.62-4.7c-.12-2.69,1-5.89-.38-7.94s-4.77-1.29-7.08-2.39c-2.87-1.37-5-.73-7.07,1.85a68.87,68.87,0,0,1-6.31,6.12,7,7,0,0,1-2.71,1.66,1.81,1.81,0,0,1-2.08-.47c-.6-.75-.14-1.5.41-2.09,1.48-1.58,2.95-3.18,4.49-4.7A31.11,31.11,0,0,0,82,557.15Zm-.92-73.78C69,489.2,62.56,499.56,60.89,512.92c-2,16.17,4.55,28.75,17.45,37,16,10.28,33.35,11,51.06,5.32,8.48-2.73,16.09-7.1,22.2-14,1-1.08,2.18-2.08,1.74-4a61,61,0,0,1-12.81.58c-6-.52-11.56-2.51-16-6.9-5.17-5.09-8.18-11.33-5.8-18.84,3.61-11.42,11.76-17.66,22.6-20.35.82-.21,1.87.17,2.56-1.45-13.12-9-27.54-11.33-42.62-10.08-.43,1.1.11,1.32.34,1.68.48.77,1.3,1.49.48,2.49a2,2,0,0,1-2.5.41c-1.25-.54-2.43-1.3-3.7-1.78-4.89-1.85-9.48-1.94-13.2,2.71-.15.18-.56.15-.86.22Z" transform="translate(0 -299.51)"/><path class="cls-1" d="M178.26,619.29c10.32-.23,19.67,2.5,27.51,10a21.08,21.08,0,0,1,5.42,8.06,11.21,11.21,0,0,1-.65,10.05,15.87,15.87,0,0,1-10.8,7.9,7.59,7.59,0,0,1-7.06-2.45c-4.85-4.86-10.88-6.58-17.18-7.79a57.39,57.39,0,0,1-7-1.77c-5.76-1.88-8.43-5.51-8.25-11,.19-5.95,3.7-10.7,9.09-12.17a13.3,13.3,0,0,1,4.42-.86C175.23,619.37,176.75,619.29,178.26,619.29Z" transform="translate(0 -299.51)"/><path class="cls-3" d="M73.6,742.25c3.88-.24,7.76-.33,11.62-.74,17.6-1.85,35.26-2.2,52.94-2.37,9.8-.09,19.63,0,29.41-1.11a10.24,10.24,0,0,1,1.36-.08c1.2,0,2.62-.08,2.69,1.72,0,1.46-1.21,1.8-2.22,1.91-3.91.41-7.82.88-11.74,1-14.64.36-29.29.52-43.93.86-13,.3-25.91,1.89-38.87,2.78a94.89,94.89,0,0,1-11.31.31c-1.47-.08-3,.15-4.51-1.21,2.15-2.3,5-1.75,7.49-2.4,1.92-.5,4.71.62,4.4-3.28,0-.38,1.11-1,1.78-1.28,3.42-1.67,6.79-3.49,10.3-4.89,10.54-4.21,19.93-10.47,29-17.39a92.45,92.45,0,0,1,21.34-12.37,41.45,41.45,0,0,1,25.79-2.17,28.26,28.26,0,0,1,13,7.27c.78.74,2.25,1.66,1,3.12-1,1.11-2.23.69-3.33,0a11.1,11.1,0,0,1-1-.91c-9-7.45-19.08-8.16-29.62-5.06-9,2.63-16.93,7.56-24.37,13.32-10.15,7.86-20.89,14.53-32.74,19.11-2.78,1.07-5.62,2-8.44,3Z" transform="translate(0 -299.51)"/><path class="cls-3" d="M117.14,626c0,8.38,3.63,14.47,9.15,19.35,4.87,4.3,10.51,7.38,16.12,10.46a3,3,0,0,0,3,.35c.7-.37,1.47-.69,1.72.5a1.84,1.84,0,0,1-1,2,5.06,5.06,0,0,1-4.81.42c-11.88-4.86-22.66-11.06-27.58-24.72-2.64-7.33-1.51-14.26,1.84-20.68,5.26-10.11,13.45-16.49,24.25-18.93a13,13,0,0,1,8.41.78c1,.46,2,1.09,1.57,2.48a1.61,1.61,0,0,1-2.24,1c-6.07-2-11.25.47-16.28,3.53a31.92,31.92,0,0,0-12.65,15.1A22.4,22.4,0,0,0,117.14,626Z" transform="translate(0 -299.51)"/><path class="cls-3" d="M132.28,813.6c16-.12,26.47,5.16,36.05,12.83a1.7,1.7,0,0,1,.34.31c.8,1.22,2.77,2.26,1.55,3.91-.92,1.24-2.53.32-3.7-.45q-2.66-1.8-5.25-3.71c-14.71-10.72-30.29-11.22-46.49-4.44a16.9,16.9,0,0,0-7.88,6.13c-.75,1.13-1.67,2.08-3,1.17-1.53-1.06-1-2.57-.2-3.79a17.41,17.41,0,0,1,7.29-6.2A52.73,52.73,0,0,1,132.28,813.6Z" transform="translate(0 -299.51)"/><path class="cls-3" d="M257.05,446.93a1.57,1.57,0,0,1-1,1.47c-2.1.88-4.18,1.84-6.33,2.57-10.35,3.48-20.77,6.78-30.48,12-6.73,3.64-13.07,7.87-18.18,13.93a44.07,44.07,0,0,0-2.8,4.31c-.82,1.24-2.06,2.09-3.47.95-1.25-1-.65-2.3,0-3.42,2.73-4.9,6.66-8.6,10.91-11.93a89.89,89.89,0,0,1,19.81-11.38c8.09-3.52,16.44-6.23,24.8-8.92a13,13,0,0,1,5.34-.71A1.79,1.79,0,0,1,257.05,446.93Z" transform="translate(0 -299.51)"/><path class="cls-3" d="M94.71,453.62c-1.66,0-3.32.05-5,0a1.48,1.48,0,0,1-1.55-1.41c-.09-1,.57-1.37,1.28-1.71a11.12,11.12,0,0,1,4-.8,48.61,48.61,0,0,1,13.07,1,104.25,104.25,0,0,1,43.08,18.91,25.81,25.81,0,0,1,5.38,5.06c.51.68,1.32,1.55.52,2.48-.57.65-1.44.4-2.11,0a63.73,63.73,0,0,1-5.8-3.68C134,463,118.85,456.88,102.38,454.05A36.51,36.51,0,0,0,94.71,453.62Z" transform="translate(0 -299.51)"/><path class="cls-3" d="M180.23,546.69a73.17,73.17,0,0,0-2.8-24.7,70.7,70.7,0,0,0-5.5-12.49c-.64-1.25-2.3-2.78-.22-4,1.69-1,2.66.47,3.61,1.83a45.75,45.75,0,0,1,6.78,15c2.79,10.83,4,21.89,2,33.09a38.58,38.58,0,0,1-1.37,5,1.59,1.59,0,0,1-1.71,1.25c-1-.13-.93-1-1-1.78C179.44,555.72,180.24,551.6,180.23,546.69Z" transform="translate(0 -299.51)"/><path class="cls-3" d="M194.06,745.53a81.56,81.56,0,0,1-13.78-2.2,10.06,10.06,0,0,1-2.52-1,1.64,1.64,0,0,1-.89-2,1.4,1.4,0,0,1,1.41-1,21.44,21.44,0,0,1,3.58.3c3.27.52,6.51,1.25,9.79,1.63,4.81.55,9.62.73,13.68-2.91a2.5,2.5,0,0,1,2.52-.62c1.2.41,1.87,1.19,1,2.48a8.53,8.53,0,0,1-3.41,3A23.57,23.57,0,0,1,194.06,745.53Z" transform="translate(0 -299.51)"/><path class="cls-2" d="M300.34,526.44c-.11,3.13-2.23,5.21-3.89,7.3-9.88,12.49-23,17.42-38,17.7a9.25,9.25,0,0,1-3.94-1,174.28,174.28,0,0,0-21.28-8.09,18.42,18.42,0,0,1-10.65-8.26A41.91,41.91,0,0,1,216.08,516c-.83-8,1.81-15.24,6-21.56,8-11.9,18.66-19.21,32.9-19.59,1.39,0,2.62-.73,3.91-1,12.36-2.38,24.08-1.09,34.39,7.36a1.6,1.6,0,0,1,.81,1.78,31.06,31.06,0,0,0-15.05,5.34c-6.58,4.52-10.08,12.62-8.39,19.65s5.57,12.29,11.92,15.3a29.85,29.85,0,0,0,13.63,3C297.55,526.23,298.9,525.73,300.34,526.44Z" transform="translate(0 -299.51)"/><path class="cls-2" d="M81.12,483.37l.69,2.52c.3-.07.71,0,.86-.22C86.39,481,91,481.11,95.87,483c1.27.48,2.45,1.24,3.7,1.78a2,2,0,0,0,2.5-.41c.82-1,0-1.72-.48-2.49-.23-.36-.77-.58-.34-1.68,15.08-1.25,29.5,1.07,42.62,10.08-.69,1.62-1.74,1.24-2.56,1.45-10.84,2.69-19,8.93-22.6,20.35-2.38,7.51.63,13.75,5.8,18.84,4.46,4.39,10,6.38,16,6.9a61,61,0,0,0,12.81-.58c.44,1.95-.79,2.95-1.74,4-6.11,6.94-13.72,11.31-22.2,14-17.71,5.7-35,5-51.06-5.32-12.9-8.28-19.47-20.86-17.45-37C62.56,499.56,69,489.2,81.12,483.37Z" transform="translate(0 -299.51)"/><path class="cls-3" d="M1198.36,899.53c-.84-4.1-.64-4.56,2.49-4.65,2.68-.08,5.37.11,8.05.08,19.59-.19,34.58-10.53,44.84-31.47,3.33-6.79,7.07-13.26,9.76-20.51,1.93-5.2,3.79-10.44,5.67-15.67.26-.73.41-1.53.73-2.21a2.2,2.2,0,0,1,3-1.36c1.44.56,1.49,2,1.09,3.51s-1,3-1.4,4.45a137.27,137.27,0,0,1-9.62,24.38,2.79,2.79,0,0,0-.33,2.42c3,.3,6-.61,9-1.17,19.39-3.64,38.47-8.78,56.68-18.13,18.84-9.67,35.44-23.23,48.37-43.17a160.5,160.5,0,0,0,17.4-36.92c4-11.94,6.83-24.33,9.52-36.8,2.55-11.84,5.36-23.6,7.93-35.44a156.36,156.36,0,0,0,3.9-30.14c.08-3.86,1.26-4.67,3.35-5.8a19.82,19.82,0,0,0,4.35-3c3.16-3,2.88-6.19-.67-8.4a11.88,11.88,0,0,0-9.74-1.19c-.24.06-.45.29-.7.38-2.37.89-3.79.57-3.92-1-.19-2.38,1.47-2.91,2.71-3.35a15.56,15.56,0,0,1,15.85,2.55c4.55,3.65,4.8,8.93.75,13.46a15,15,0,0,1-4.87,3.75c-1.67.77-2.44,2.11-2.54,4.26-.07,1.43-.32,2.85-.35,4.28-.24,9.65-2.15,18.91-4.13,28.16-1.77,8.31-3.48,16.64-5.33,24.93-3.57,16-6.88,32-12.21,47.27-12.27,35.09-32.48,60.47-60.38,76.39a177.29,177.29,0,0,1-38.83,16.2c-3.48,1-3.52,1-3.6,5.59q-.37,19.15,0,38.3h-4.61c-.58-13.73-.11-27.48-.11-41.67a269.09,269.09,0,0,1-29.85,6c-1.48.22-2.12,1.34-2.83,2.74-8.62,16.95-20.72,27.66-36.57,31.64-.67.17-1.91-.44-2,1.3Z" transform="translate(0 -299.51)"/><path class="cls-3" d="M1132.35,899.53a192.86,192.86,0,0,1,9.39-26.06c.88-2,.88-3.18-.57-4.87a45.87,45.87,0,0,1-8.22-14.24c-1.51-4.08-4.58-6.77-6.91-10.13-6.78-9.77-12.08-20.56-14.57-33.16-2.38-12-1.19-23.13,6.91-31.79a67,67,0,0,1,8.49-8.14c4.93-3.66,9.92-7.23,14.87-10.86a27,27,0,0,0,6-5.39c-2.88,0-5.08.13-7.27,0-6.89-.47-13.79-1-20.7-1-1.59,0-3.94.21-3.92-2.37,0-2.12,2.26-2.06,3.78-2.09,8.32-.14,16.61.67,24.92,1.15a6.76,6.76,0,0,1,3,.64c1.91,1.09,3.34,1.09,4.18-1.7a3.25,3.25,0,0,1,.68-1.15c1-1.08,2.09-1.35,3.16-.48s.75,2.23.29,3.42c-2.24,5.72-4.36,11.53-6.78,17.13a88.91,88.91,0,0,0-6.92,27.17c-.27,2.84-.76,5.66-1.21,8.47-.23,1.42-1.06,2.26-2.21,2.17s-2.07-1.15-2.25-2.77a9.38,9.38,0,0,1,0-1.91c1.15-11.76,2.82-23.34,7.6-33.84a22.23,22.23,0,0,0,.83-2.15,4.63,4.63,0,0,0,.1-.92c-.27-.37-.58-.68-1-.42-7.4,5-14.74,10.15-21.25,17-6.83,7.13-8.75,16.2-7,26.65a81.37,81.37,0,0,0,12.8,31.66,7.22,7.22,0,0,0,.81,1c.08.09.25,0,.53.07,1.16-.62.68-2.08.75-3.2.32-5.74.64-11.47,2.67-16.78a10.65,10.65,0,0,1,1.52-3.29c.92-1.07,1.93-1.75,3.1-1,1.4.91.93,2.44.48,3.77a58.33,58.33,0,0,0-2.58,24.87c1.12,10.62,6,18.37,12.69,24.62,6.12,5.74,13.17,9,20.39,11.84,3,1.19,6.09,2.41,9.13,3.59.89.35,1.84.74,1.73,2.12-.12,1.65-1.26,1.88-2.3,1.8a13.32,13.32,0,0,1-3.38-.71c-8.86-3.11-17.68-6.36-25.62-12.46-.92-.71-2.08-1.94-2.85.15-2.85,7.79-6.19,15.33-8,23.68Z" transform="translate(0 -299.51)"/><path class="cls-2" d="M1219.09,899.53c.11-1.74,1.35-1.13,2-1.3,15.85-4,28-14.69,36.57-31.64.71-1.4,1.35-2.52,2.83-2.74a269.09,269.09,0,0,0,29.85-6c0,14.19-.47,27.94.11,41.67Z" transform="translate(0 -299.51)"/><path class="cls-3" d="M1075.55,899.53c.52-.29.78-1.4,1.58-.73.3.24.28.5,0,.73Z" transform="translate(0 -299.51)"/><path class="cls-3" d="M1389.12,418.7c-4.7-.21-8.9-2.06-13.57-3.55.33,4.09,1.87,7.09,3,10.11,5.33,13.66,5.58,27.63,2,41.88-.57,2.27-.36,3.32,1.47,4.36,5,2.84,9.8,6.23,15.42,6.78.54.05,1,.24,1.11,1a1.73,1.73,0,0,1-.76,1.53c-2,1.55-4.14,1.48-6.3.77a31.15,31.15,0,0,1-7.87-3.69c-15.66-10.52-32.66-15.45-50-19-11.49-2.34-23.05-4-34.63-5.44-1.82-.22-3.78-1.13-5.48.8a1.13,1.13,0,0,1-1.78-.13c-1.57-2.19-3.68-1.85-5.67-2.08a470.94,470.94,0,0,0-108.82-.5c-8.27.92-16.5,2.45-24.74,3.85-1.59.26-3.35.21-4.69,1.75a1.35,1.35,0,0,1-1,.5c-6.27-1-12.06,2.15-18.06,3.36a78.49,78.49,0,0,0-7.86,2.2c-1.52.48-3.17.43-3.42,3.46-.16,2-2,2.4-3.73.91-1.11-.95-2-1.59-3.41-1.09-13.45,4.61-26.86,9.31-39.34,17.28-2.16,1.37-4.19,3.05-6.34,4.44-4.42,2.87-6.22,7.78-7.08,13.54-3.19,21.35-2.67,42.89-2.23,64.44a248.73,248.73,0,0,0,2.71,29.94c.7,5,1.93,9.91,3.11,14.79a63.77,63.77,0,0,1,1,6.57c.11.81.12,1.68-.61,2s-1.22-.21-1.67-.8c-2.39-3.1-3.37-7.06-4.31-11-3.69-15.59-4.73-31.63-5.14-47.77-.36-14,.1-28.09.63-42.12.18-4.81,1.07-9.48,1.7-14.2a43.09,43.09,0,0,0-1-17.26,59.23,59.23,0,0,1-.09-29.25,112.82,112.82,0,0,1,5.59-17.25,6.29,6.29,0,0,1,1.55-2.67c1.1-.86,2.37-1.94,3.55-1,1.36,1.12,0,2.66-.3,3.82-1.72,5.82-3.75,11.49-5.39,17.35-2.6,9.33-2.21,18.82-.4,28.3a5.84,5.84,0,0,0,.47,1.31,13.67,13.67,0,0,0,.72,1.24,5.18,5.18,0,0,0,1.39-.7c7.45-7,15.89-11.45,24.52-15.48,2.85-1.33,3-1.41,2.09-5a87.3,87.3,0,0,1-2.34-27.43c.43-5.91,1.3-11.68,3.51-17a2.24,2.24,0,0,0,.13-2.18c-.48-.77-1.14-.4-1.74-.17a87.46,87.46,0,0,0-18.35,9.56c-4.83,3.35-7,1.86-7.14-5.25-.56-21.89,4.51-41.4,15.67-58.46s25.53-29.14,41.35-38.6c19.29-11.54,39.68-18.51,60.73-22.7,33.33-6.64,66.74-6.68,100.2-1.83a168.43,168.43,0,0,1,50.47,15.66c11.1,5.47,20.53,14,29.37,23.8,10.94,12.12,20.83,25.34,28.48,41a134.87,134.87,0,0,1,10.78,33.08,125.15,125.15,0,0,1,2.47,18.38c.14,3.13,1.38,5.84,2.41,8.51,3.83,10,5,20.69,5.61,31.55.23,4.2-.55,5.9-2.37,6-1.64.08-2.34-1.35-2.63-5.47-.08-1.11-.12-2.23-.16-3.34a101.34,101.34,0,0,0-7-33c-1.65-4.31-3.09-8.73-4.94-12.93-.85-1.91-1.34-4,1.24-4.74,1.29-.38.86-1.71.74-2.76-.6-5.26-2.23-10.14-3.64-15.08a124.41,124.41,0,0,0-17.44-36.24c-9.39-13.74-19.84-26.1-31.93-36.1-10.15-8.4-21.71-12.69-33.28-16.78-13.34-4.72-27-7-40.8-8.45a290.54,290.54,0,0,0-54-1.09c-29.25,2.37-57.89,8.27-85.06,22.75-15.38,8.21-29.62,18.62-41.41,33.73a93.46,93.46,0,0,0-16.64,32.28,102,102,0,0,0-3.57,31.42,1.28,1.28,0,0,0,1.6.12c12.35-8.11,25.74-12.23,39.27-15.78,4.18-1.1,4.16-.3,3.23-6.05-.77-4.68-1.82-9.25-2-14.11-.19-6.16,1.93-10.39,6-13.33a22.93,22.93,0,0,1,4.14-2.44c14.24-6.22,28.85-9.77,44-9.3a37.63,37.63,0,0,1,12.87,2.31c5.66,2.24,9.85,6.26,11.76,13.73.89,3.48,1.93,6.92,2.71,10.45.49,2.17,1.23,3.08,3.21,2.86,31.78-3.67,63.61-3.06,95.46-1.53a298.42,298.42,0,0,1,81.4,15.06,81.32,81.32,0,0,1,19,8.7C1387.61,416.25,1388.87,416.29,1389.12,418.7Zm-100.4-21.9a82.71,82.71,0,0,1,3.74,16.77c1,10.29,2.19,20.54,2.19,30.94,0,4,.14,3.83,3.19,4.18q8.58,1,17.14,2.31c5.7.88,11.38,2,17.08,2.91,1.14.19,2.72,1,2.65-1.8-.27-10.81-.06-21.65-2.32-32.28-1.23-5.74-3.24-11-4.91-16.51-.59-1.93-1.32-2.44-2.65-2.64-3.55-.53-7.1-1.15-10.65-1.62C1305.82,397.94,1297.43,397.23,1288.72,396.8Zm87.45,70.79c.59-4.73,1.26-8.95,1.61-13.21a58.71,58.71,0,0,0-1.73-21.2c-1.59-5.56-4-10.73-5.2-16.41-.7-3.22-2.12-4.66-4.62-5.48a322,322,0,0,0-32.18-8.65c-.58-.13-1.23-.4-1.85.56a89,89,0,0,1,6.45,25.67,197.36,197.36,0,0,1,.87,22.43c-.09,4.07-.08,4.09,3,4.84,10.8,2.61,21.49,5.66,31.7,10.9A12.39,12.39,0,0,0,1376.17,467.59Zm-219.35-99a92.15,92.15,0,0,0-24.67,3.89c-5.22,1.51-10.45,3.06-15.38,5.78-4.64,2.56-5.92,5.26-5.86,11.43,0,4.05,1.09,7.84,1.7,11.74.9,5.72.94,5.81,5.51,4.71,17.07-4.11,34.22-7.52,51.5-10,3.81-.54,7.62-1.08,11.44-1.5,1.87-.21,2.36-1.05,1.75-3.37-.83-3.18-1.75-6.34-2.48-9.52-1.68-7.3-5.85-10.41-11.3-11.89A51.29,51.29,0,0,0,1156.82,368.54Zm47,76.21v-.51h17.26c1.48,0,2.26-.37,2.14-2.72-.73-14.32-1.1-28.67-4.06-42.68-.49-2.36-1.09-3.17-3-3-4.33.41-8.68.53-13,.92-6.76.59-13.51,1.36-20.27,1.94-1.9.16-2.85.69-3.07,3.53a85.5,85.5,0,0,0-.19,14.31,154.16,154.16,0,0,0,4.76,26c.7,2.63,1.54,3.57,3.75,3.34C1193.36,445.38,1198.6,445.12,1203.84,444.75Zm-23.2,1.67c-4.36-15.35-7.35-30.5-5.26-46.79-8.41,1.36-16.26,2.61-24.11,3.89-4.52.74-5.26,1.67-6.54,7.06-3.09,13-1.9,25.84,1.14,38.6.49,2.05,1.24,2.77,3,2.37,4.27-.94,8.57-1.69,12.88-2.37C1167.85,448.22,1173.94,447.39,1180.64,446.42Zm76-50.9a7.12,7.12,0,0,0-.13,1.08c2.15,15.24,4,30.52,3.4,46.08-.1,2.38,1,2.49,2.39,2.61,8.28.7,16.57,1.47,24.85,2.16,2.78.23,2.79.16,2.78-3.16,0-11.52-1.31-22.9-2.62-34.26a55.36,55.36,0,0,0-2.79-11.4c-.46-1.37-.89-2.06-2.1-2.14C1273.84,395.89,1265.3,395.61,1256.6,395.52Zm-.37,48.87c-.35-4.13-.81-7.91-1-11.71-.41-9.24-1.43-18.38-2.27-27.56-.3-3.23-.87-6.43-1.31-9.65a36.52,36.52,0,0,0-8-.33c-6.62.08-13.24.29-19.78.44a10.43,10.43,0,0,0,.39,5.51,78,78,0,0,1,1.92,12.15,242.21,242.21,0,0,1,1.64,27.6c0,2.42.54,3.37,2.6,3.34,5.1-.08,10.21.14,15.31.2C1249.16,444.42,1252.58,444.39,1256.23,444.39Zm-115-39c-8.19,1.82-15.47,3.44-22.74,5.08a3.62,3.62,0,0,0-2.85,2.82,68.62,68.62,0,0,0-2.26,8.61,100.2,100.2,0,0,0,1.59,35.51c.5,2.29,1.3,2.55,3,2,5.83-1.75,11.72-3.23,17.57-4.9,2.18-.62,4.5-.65,6.73-2A80.84,80.84,0,0,1,1141.19,405.39Zm-30.65,7.79c-.18-.1-.3-.24-.41-.23-5.36.51-10.48,2.51-15.69,3.94-.5.14-1.11.4-1.14,1.09-.17,3.56-2.62,5.7-3.45,8.91-3.43,13.41-2.69,26.69.39,40,.31,1.35.88,1.81,2,1.42,5.75-2.1,11.51-4.2,17.27-6.25,1.09-.38,1.46-1.1,1.16-2.43-.24-1.07-.44-2.16-.67-3.24-2.51-11.23-2.66-22.6-1.44-34.09C1108.86,419.11,1110.39,416.38,1110.54,413.18Z" transform="translate(0 -299.51)"/><path class="cls-3" d="M1239.87,703.33c.62,2.11.57,3.86-1.33,5-5.8,3.52-11.75,5.26-18.14,2.91-3.86-1.43-5.2-2.38-8.8-6.7-4.61,13.71-10.16,26.63-14.39,40.32-.14.35-.48.83-.39,1,.28.66.75.42,1.17.12,11.34-3.63,22.84-5.44,34.55-4.54a133.53,133.53,0,0,1,35,8c5.38,1.94,11,3.26,15.86,6.95.91.69,2,.38,3,.45,16.74,1,33.49,1,50.24.55a108.39,108.39,0,0,1,14.19.13c1.41.14,2.84.23,4,1.39a1.39,1.39,0,0,1-.16,2.29,5.54,5.54,0,0,1-3.37.68c-22.5,0-45,.85-67.5-.59-1.14-.07-2.22-.22-3.24.88-4.92,5.24-10.93,7.39-17,9.21a63.81,63.81,0,0,1-14.44,2.29,238.05,238.05,0,0,1-37.95-.31c-6.81-.67-13.28-3.22-19.8-5.45-1.71-.59-2.63-.5-3.06,1.87-.37,2-1.17,3.88-1.23,6-.1,3.92,1.4,6.21,4.47,7.13,2.76.83,5.62-.9,8.34.7.76.45,1-.59,1.19-1.34.5-2,1.83-2.47,3.26-2.81,4.52-1.06,8.63.38,12.43,3.32a26,26,0,0,1,4.51,4.4c3.81,4.78,8.41,5.65,13.45,4.64,1.76-.35,3.5-.94,5.27-1.21,5.52-.82,10.36,1.07,14.46,5.8.88,1,1.76,2.2.9,3.68s-2.11.89-3.16.31a10.4,10.4,0,0,1-2.21-1.86,10.54,10.54,0,0,0-11.19-3,32.93,32.93,0,0,1-8.76,1.1,13.72,13.72,0,0,1-10.58-4.69c-1.56-1.64-3.11-3.29-4.71-4.87-2.72-2.69-5.83-4-9.29-3.4a6.1,6.1,0,0,1-5.19-1.18c.39,4-1.39,4.79-3.61,5a20.58,20.58,0,0,1-6.12-.07c-6.35-1.27-9.59-7.16-8-14.86a72.16,72.16,0,0,1,4.15-13.33,4.5,4.5,0,0,1,1.52-2.07,1.94,1.94,0,0,1,2.54,0,2.74,2.74,0,0,1,.6,2.58c-.13,1.07-.87,2-.53,2.88,16,7.57,32.44,7.49,49,7,7.29-.19,14.58-.49,21.76-2.32a42.69,42.69,0,0,0,11.28-4.54c.55-.33,1.19-.52,1.39-1.45-.63-1.22-1.61-.72-2.4-.76-24.91-1.31-49.81-2.93-74.74-3.72-1.73,0-3.78.4-4.07-2.91a1.29,1.29,0,0,0-.44-.66c-2.66-2.67-2.79-2.74-1.46-6.47,3.43-9.58,7-19.08,10.5-28.65,2-5.36,3.8-10.78,5.68-16.19.3-.86.72-1.83.12-2.68-.82-1.16-1.61-.18-2.37.28-4.67,2.81-9.39,2.59-14.11.3-4.14-2-7.1-7.15-4.82-13.48.26-.72.48-1.48.69-2.23s.16-1.35-.37-1.64c-.69-.39-1.17.11-1.5.92-1.61,4-3.36,7.86-4.85,11.9-4,11-8.7,21.59-13,32.44-1.58,4-3.09,8-4.65,12a23.13,23.13,0,0,1-1.17,2.46c-.86,1.61-2.07,2.68-3.55,1.64s-.82-2.84-.29-4.25c2.25-6.06,4.49-12.14,6.9-18.11,4.29-10.65,8.75-21.2,13-31.86.85-2.11,2.29-3.87,2.61-6.65-2.16-.65-3.9.44-5.63,1.69-1.31.94-2.69,2.36-4.06.25-.87-1.36.06-3.14,2.35-4.56a16.16,16.16,0,0,1,6.23-2.28c12.39-1.93,22.6,3,30.49,15.19,2.5,3.87,2.55,3.83,3.26,8.61,2-.86,3.22.13,4.8,2.06,2.84,3.46,6.81,4.13,10.76,3.55a16.12,16.12,0,0,0,6.23-2.29,14.33,14.33,0,0,1,5.48-1.89Zm-43.42,48.77c24.31.87,48.6,2.76,72.93,3.28C1245.34,746,1221.14,741.12,1196.45,752.1Zm7.55-57.54a24.64,24.64,0,0,0-9.68-9.6c-.8-.41-1.58-1-2.48-.13-2.61,2.66-2.32,8.62.69,10.63C1196.25,697.93,1200,698.18,1204,694.56Z" transform="translate(0 -299.51)"/><path class="cls-3" d="M1130.87,540.22l-3.2-3.82a2.89,2.89,0,0,1-.6-3.4c.69-1.17,1.78-.9,2.82-.56a4.94,4.94,0,0,1,2.47,2.18c2,3,4,2.81,6.68,1.24a39.6,39.6,0,0,1,10.59-4.1,23.24,23.24,0,0,1,12.51.59c1.1-1.76,0-3.53.3-5.2.23-1.5.63-2.81,2-3.08s2.1.89,2.63,2.23a10.4,10.4,0,0,1,.41,1.83c.29,1.47-.36,3.39,1,4.34s2.75,2,4.55,2.18c10.54.94,20.15,5.49,29.1,12.35a35.06,35.06,0,0,1,9.62,10.79c5.73,10.34,5.73,21.2,1.4,32.17A51.89,51.89,0,0,1,1189,617.21c-21.49,11.85-42.66,11.5-63.35-2.86A43.16,43.16,0,0,1,1110,594.63c-5.73-14.19-3.92-26.88,4-38.52a55.16,55.16,0,0,1,13.41-13.31Zm8.49.73c-1.58.87-3,1.6-4.36,2.42a52.89,52.89,0,0,0-16.42,14.57c-7.49,10.44-9.28,22.47-3.74,35.69a38.22,38.22,0,0,0,13.28,16.7c19.34,13.77,39.1,13.85,59.14,2.47a46.85,46.85,0,0,0,21.26-24.36c4.37-11.11,3.81-21.48-2.57-30.71-2-2.92-2.14-2.93-4.57-.67a41.94,41.94,0,0,1-15.71,9.63,24.63,24.63,0,0,1-23.29-3.9c-6.08-4.51-10.11-12.25-7.53-21.24a3.07,3.07,0,0,0,0-.85c-.12-.07-.24-.23-.34-.21-4.56.89-9.48.19-13.21,4.75-.75.93-1.41.08-1.85-.73C1138.87,543.48,1139.86,542.44,1139.36,541Z" transform="translate(0 -299.51)"/><path class="cls-1" d="M1306.13,530.27a7.83,7.83,0,0,1,7.09,1.72,3.71,3.71,0,0,0,2.21.52c6.18.47,12.06,2.51,17.82,5.24,2.89,1.36,2.89,1.36,4.7-1.46.32-.5.55-1.08.89-1.55,1-1.35,2.34-1.75,3.43-.65s.59,2.62-.09,3.9c-.55,1-1.15,2.06-1.82,3.26.91,1.78,2.48,2.26,3.71,3.24,4.79,3.81,9.2,8.14,11.75,14.63,2.28,5.79,3.54,11.84,2.4,18.47-2.45,14.3-9.17,24.77-19,32-22.07,16.42-44.94,18.64-68.34,4.48a44.1,44.1,0,0,1-18-20.61c-6.38-14.66-4.59-28.08,4-40,6.9-9.63,15.85-15.35,25.28-20,5.37-2.67,10.86-4.77,16.74-4.36,1.36.1,2.23-.28,2.31-2.22a10.79,10.79,0,0,1,.54-2.77,2.07,2.07,0,0,1,2.47-1.68c1.15.22,1.76,1.09,1.81,2.61S1305.54,528.15,1306.13,530.27Zm-17.86,5.46a17.78,17.78,0,0,0,9.11-2.78,15.2,15.2,0,0,0-9.37,2.37c-.32.25-1.13.13-.81.85S1288,536.2,1288.27,535.73Zm-6,4.52c1-1.22,2.65-1.45,3.3-3.8-1.85.24-3.24.56-4.32,2-.68,1.06-1.76,1.25-2.66,1.81-6.31,3.93-12.38,8.31-17.21,14.88-8.22,11.16-10.15,23.56-3.64,37.65a39.63,39.63,0,0,0,15.42,17.35c20.63,12.85,41,11.21,60.94-2.34a45.21,45.21,0,0,0,17.17-22.37c3.86-10.4,3.3-20.84-2.65-29.52-2.64-3.85-2.29-3.42-5.14-.84-5,4.56-10.42,8.09-16.51,9.69-8.21,2.15-16.06,1-23.14-5-6.3-5.3-8.65-12.2-6.53-20.47.05-.22-.13-.54-.26-1-2.52-.26-5,.61-7.44,1.26-2.14.57-4.64.35-6,3.31a.78.78,0,0,1-1.35.12C1281.57,542.14,1281.27,541.15,1282.32,540.25Z" transform="translate(0 -299.51)"/><path class="cls-3" d="M884,789.13c2.76-1.12,2.26.22,3.66,1.92a22.13,22.13,0,0,1,3.93,8.65c1.23,4.84,2.39,9.72,3.22,14.73,1.14,6.84,2.28,20.42,6.12,25.92a54.43,54.43,0,0,0,3.46,4.45c6.43,7.38,13.54,8.73,21.57,4.21,6.82-3.83,12.93-9,18.81-14.6s11.71-11.28,18.43-15.32a42.55,42.55,0,0,1,12-4.93c12.74-3.09,24.31,6.47,29.72,19.43,2.73,6.54,4.27,13.63,6.24,20.5,3.74,13,11.56,19.36,22,20.3,13.08,1.18,24.23-4.81,33.2-16.84.35-.47.57-1.09.94-1.51a1.82,1.82,0,0,1,2.81-.15c1.12.94.84,2.06.24,3.3a21.7,21.7,0,0,1-4.27,6.08c-7.64,7.67-16.35,12.37-26.07,13.91-7.16,1.13-14-.67-20.42-4.77-6.06-3.87-10.11-10-12.44-18-1.58-5.38-2.94-10.86-4.63-16.17-3.44-10.77-9.07-18.74-18.52-21.48-4.66-1.35-9.15,0-13.53,1.82-6.87,2.89-12.76,7.94-18.47,13.34-6,5.67-11.86,11.58-18.55,16A40.53,40.53,0,0,1,920.5,856,14.54,14.54,0,0,1,910,854.84c-9.19-4.9-15.4-19.71-18.11-31.94-2-9.19-1.41-18.61-4.26-27.53A15.89,15.89,0,0,0,884,789.13Z" transform="translate(0 -299.51)"/><path class="cls-3" d="M1064.45,691.67c0-7.76,0-16.53,0-25.31,0-3.64,0-3.7-2.83-4.23a26.79,26.79,0,0,1-7.44-2.19c-7.8-4-9.32-14.38-3.16-21.55a14.14,14.14,0,0,1,8.57-4.92,7.43,7.43,0,0,1,4.15.59c2.14.9,3.32,2.5,2.73,3.81-.92,2.07-2.35,1.23-3.7.73-4-1.46-8.48,1.28-10,6s0,9.43,3.89,11.31a22.06,22.06,0,0,0,4.46,1.36c1.87.48,3.78.79,5.65,1.28s2.51,1.47,2.49,4.27c-.16,25-.47,50.12,2.66,75a124.89,124.89,0,0,0,16.53,48.28,92.5,92.5,0,0,0,16.57,21c.31.29.71.52.88.9.58,1.27,2.8,1.56,1.85,3.57-.84,1.78-2.53,1.18-3.82.51a15,15,0,0,1-2.91-2.27c-7.07-6.45-12.85-14.42-17.92-23.31-9.38-16.44-14.8-34.61-16.8-54.67C1065,718.79,1064.78,705.75,1064.45,691.67Z" transform="translate(0 -299.51)"/><path class="cls-3" d="M1042.55,839.47c-2.77,5.13-6.57,6.67-11,6.22s-7.21-3.31-8.44-8.82a81.76,81.76,0,0,1-2.08-14.55,61.66,61.66,0,0,0-4.33-20.63,27.11,27.11,0,0,0-13.74-15c-6.78-3.28-13.71-3.23-20.76-1.58-13.35,3.12-25.5,10.06-37.26,18.2-5.36,3.7-10.48,7.91-16,11.26a37,37,0,0,1-8.21,3.92c-6.64,2-11.37-.63-14.59-8.42-2.62-6.33-3.43-13.31-3.22-20.44a11.54,11.54,0,0,1,.3-2.35c.28-1.17.91-1.92,2-1.83a2.23,2.23,0,0,1,2.14,2.24c.1.94,0,1.91,0,2.86.09,5.94.69,11.74,2.78,17.2,2.27,5.93,5.13,7.65,10.22,5.86,4.71-1.67,8.93-4.65,13.09-7.76,10.75-8,21.7-15.49,33.58-20.66,6.9-3,14-5.28,21.26-5.81,11.23-.8,21.34,2.76,29,13.62,5.54,7.83,7.59,17.54,8.3,27.7a94.28,94.28,0,0,0,2,14.59c1,4.39,2.33,5.64,6,5.75a11.34,11.34,0,0,0,6-1.41C1040.31,839.17,1041.09,838.4,1042.55,839.47Z" transform="translate(0 -299.51)"/><path class="cls-3" d="M1419.52,573.33c.62,14.32-1.26,29.92-3.18,45.52a31.53,31.53,0,0,1-1.68,6.33c-.31.94-.88,1.61-1.76,1.53s-1.21-1-1.44-1.93a15.14,15.14,0,0,1,0-5.2c1-9.16,2.45-18.22,2.92-27.46a305.35,305.35,0,0,0-1.21-49.6c-.76-6.78-1.15-13.63-2.69-20.25a17.63,17.63,0,0,1-.28-2.84c-.11-1.68.46-2.82,1.86-3s2.23.63,2.52,2.28c.61,3.41,1.34,6.81,1.76,10.26C1418.09,543.18,1419.62,557.39,1419.52,573.33Z" transform="translate(0 -299.51)"/><path class="cls-3" d="M1143.42,496.88a2.31,2.31,0,0,1-1.22,1.82,28.27,28.27,0,0,1-5.34,2.53c-11,4.53-21.12,11-29.31,21.58a66.7,66.7,0,0,0-7.37,12.69c-.32.68-.58,1.41-.88,2.11-.73,1.68-1.86,2.18-3.21,1.39-1.59-.94-1.25-2.49-.6-4a63.84,63.84,0,0,1,9.06-15.83c9.41-11.54,20.82-18.61,33.4-23a7.14,7.14,0,0,1,4.53-.37A1.16,1.16,0,0,1,1143.42,496.88Z" transform="translate(0 -299.51)"/><path class="cls-3" d="M1239.89,703.43c.17-.23.52-.54.48-.66-1.95-6.2,0-11.17,3.23-15.67a22.38,22.38,0,0,1,16.12-9.82c6.06-.73,12,.47,17.83,2.34a6.4,6.4,0,0,1,3.06,1.9,1.82,1.82,0,0,1,.44,1.72,1.36,1.36,0,0,1-1.17,1,10.93,10.93,0,0,1-4.93-.61,41,41,0,0,0-11.75-2,18.1,18.1,0,0,0-15.24,7.46,16.58,16.58,0,0,0-3.66,8.71c-.42,4-.48,4-3.87,4.48-.54.07-.48.59-.57,1A.61.61,0,0,1,1239.89,703.43Z" transform="translate(0 -299.51)"/><path class="cls-3" d="M1259.53,800.42c5.5,1,10.64.21,15.7,1.25,2.58.53,4.94,1.4,6.55,4.26a10.34,10.34,0,0,1-.45,10.55c-.9,1.22-1.93,1.49-3.09.8s-1.25-2-.85-3.6c1.35-5.35.36-7.27-4.16-7.79-3-.35-6.11-.26-9.16-.48a30.78,30.78,0,0,1-4.55-.73c-1.16-.25-2.45-.8-2.29-2.56S1258.84,800.48,1259.53,800.42Z" transform="translate(0 -299.51)"/><path class="cls-3" d="M1242.91,650.73c0,.29.17,1.55-1,2s-2-.32-2.49-1.55a20.78,20.78,0,0,1-1.84-6.19c-.73-6.77-.88-13.61-1.95-20.32-.31-1.9-.11-3.58,1.72-4s2.5.94,2.75,2.92c.41,3.13.94,6.24,1.25,9.38C1241.93,638.58,1242.36,644.26,1242.91,650.73Z" transform="translate(0 -299.51)"/><path class="cls-3" d="M1209.26,634.14c-.26,4.64-.35,8.46-.72,12.23-.35,3.53-1.4,5.19-2.71,5s-2.27-2.21-2.15-5.47c.27-7.28,1-14.53.86-21.84,0-1.81.59-3.18,2.21-3.07,1.44.1,2.36,1.19,2.42,3,.08,2.38.07,4.75.09,7.13C1209.27,632.45,1209.26,633.72,1209.26,634.14Z" transform="translate(0 -299.51)"/><path class="cls-3" d="M1174.62,654a5.33,5.33,0,0,1,3.89,1.61,2.18,2.18,0,0,1,.7,2.06,1.53,1.53,0,0,1-1.4,1.35,6,6,0,0,1-1.52-.07c-5.49-.92-9.31,3.42-9.08,10.34a17.31,17.31,0,0,0,.2,1.89c.15,1,1,2.17-.2,2.91a2.41,2.41,0,0,1-3.23-.56c-1.58-1.71-1.93-4-1.68-6.51C1163,660,1168.45,654.06,1174.62,654Z" transform="translate(0 -299.51)"/><path class="cls-3" d="M1271.94,652.05a8.43,8.43,0,0,1,5.34,2.55c4.11,3.83,6.83,8.93,8.56,14.88a8.62,8.62,0,0,1,.49,3.73c-.15.93-.32,1.92-1.18,2.25s-1.46-.17-2-.91a17.83,17.83,0,0,1-2.33-4.87c-2.07-5.71-4.58-11-9.6-13.53-1-.48-2.07-.9-1.72-2.59S1271,652.16,1271.94,652.05Z" transform="translate(0 -299.51)"/><path class="cls-3" d="M1183.9,734a40.54,40.54,0,0,1-10.13-2.21,2.31,2.31,0,0,1-1.75-2.65,1.83,1.83,0,0,1,2.46-1.55c3.51.71,7,1.5,10.52,2.32a4,4,0,0,1,1.72.92,2.45,2.45,0,0,1,.77,1.53,1.55,1.55,0,0,1-1.3,1.5C1185.43,734,1184.67,734,1183.9,734Z" transform="translate(0 -299.51)"/><path class="cls-3" d="M1180.1,743.93a22.27,22.27,0,0,1-6.75-1.92,2.08,2.08,0,0,1-1.38-2.44,1.74,1.74,0,0,1,2.1-1.54,64.93,64.93,0,0,1,6.66,1.81,2.14,2.14,0,0,1,1.77,2.55C1182.21,744,1181,743.73,1180.1,743.93Z" transform="translate(0 -299.51)"/><path class="cls-3" d="M1168.57,764.33c-.2,1.56-1.07,2.14-2.2,1.87a8.37,8.37,0,0,1-4.58-3.24,1.83,1.83,0,0,1,.41-2.78c1.61-1,5.67,1.06,6.25,3.18A6.76,6.76,0,0,1,1168.57,764.33Z" transform="translate(0 -299.51)"/><path class="cls-3" d="M1165.82,768.66c1.06.07,2,.36,2.24,1.91s-1.53,2.95-3.3,3c-.92,0-1.81-.21-2-1.56S1164.22,768.76,1165.82,768.66Z" transform="translate(0 -299.51)"/><path class="cls-3" d="M1174.72,766.52a2.83,2.83,0,0,1,2.43,2.85c.11,1.5-.72,1.94-1.73,1.79-1.31-.2-2.62-.64-2.65-2.7A1.72,1.72,0,0,1,1174.72,766.52Z" transform="translate(0 -299.51)"/><path class="cls-2" d="M1288.72,396.8c8.71.43,17.1,1.14,25.46,2.26,3.55.47,7.1,1.09,10.65,1.62,1.33.2,2.06.71,2.65,2.64,1.67,5.49,3.68,10.77,4.91,16.51,2.26,10.63,2,21.47,2.32,32.28.07,2.8-1.51,2-2.65,1.8-5.7-.93-11.38-2-17.08-2.91s-11.42-1.64-17.14-2.31c-3-.35-3.2-.16-3.19-4.18,0-10.4-1.23-20.65-2.19-30.94A82.71,82.71,0,0,0,1288.72,396.8Z" transform="translate(0 -299.51)"/><path class="cls-2" d="M1376.17,467.59a12.39,12.39,0,0,1-1.91-.55c-10.21-5.24-20.9-8.29-31.7-10.9-3.12-.75-3.13-.77-3-4.84a197.36,197.36,0,0,0-.87-22.43,89,89,0,0,0-6.45-25.67c.62-1,1.27-.69,1.85-.56a322,322,0,0,1,32.18,8.65c2.5.82,3.92,2.26,4.62,5.48,1.24,5.68,3.61,10.85,5.2,16.41a58.71,58.71,0,0,1,1.73,21.2C1377.43,458.64,1376.76,462.86,1376.17,467.59Z" transform="translate(0 -299.51)"/><path class="cls-2" d="M1156.83,368.54a51.27,51.27,0,0,1,12.2,1.28c5.45,1.48,9.62,4.59,11.3,11.89.73,3.18,1.65,6.34,2.48,9.52.61,2.32.12,3.16-1.75,3.37-3.82.42-7.63,1-11.44,1.5-17.28,2.47-34.43,5.88-51.5,10-4.57,1.1-4.61,1-5.51-4.71-.61-3.9-1.66-7.69-1.7-11.74-.06-6.17,1.22-8.87,5.86-11.43,4.93-2.72,10.16-4.27,15.38-5.78A92.16,92.16,0,0,1,1156.83,368.54Z" transform="translate(0 -299.51)"/><path class="cls-2" d="M1203.84,444.75c-5.24.37-10.48.63-15.7,1.18-2.21.23-3.05-.71-3.75-3.34a154.16,154.16,0,0,1-4.76-26,85.5,85.5,0,0,1,.19-14.31c.22-2.84,1.17-3.37,3.07-3.53,6.76-.58,13.51-1.35,20.27-1.94,4.34-.39,8.69-.51,13-.92,1.91-.18,2.51.63,3,3,3,14,3.33,28.36,4.06,42.68.12,2.35-.66,2.73-2.14,2.72h-17.26Z" transform="translate(0 -299.51)"/><path class="cls-2" d="M1180.64,446.42c-6.7,1-12.79,1.8-18.86,2.76-4.31.68-8.61,1.43-12.88,2.37-1.79.4-2.54-.32-3-2.37-3-12.76-4.23-25.56-1.14-38.6,1.28-5.39,2-6.32,6.54-7.06,7.85-1.28,15.7-2.53,24.11-3.89C1173.29,415.92,1176.28,431.07,1180.64,446.42Z" transform="translate(0 -299.51)"/><path class="cls-2" d="M1256.6,395.52c8.7.09,17.24.37,25.78,1,1.21.08,1.64.77,2.1,2.14a55.36,55.36,0,0,1,2.79,11.4c1.31,11.36,2.58,22.74,2.62,34.26,0,3.32,0,3.39-2.78,3.16-8.28-.69-16.57-1.46-24.85-2.16-1.38-.12-2.49-.23-2.39-2.61.64-15.56-1.25-30.84-3.4-46.08A7.12,7.12,0,0,1,1256.6,395.52Z" transform="translate(0 -299.51)"/><path class="cls-2" d="M1256.23,444.39c-3.65,0-7.07,0-10.5,0-5.1-.06-10.21-.28-15.31-.2-2.06,0-2.6-.92-2.6-3.34a242.21,242.21,0,0,0-1.64-27.6,78,78,0,0,0-1.92-12.15,10.43,10.43,0,0,1-.39-5.51c6.54-.15,13.16-.36,19.78-.44a36.52,36.52,0,0,1,8,.33c.44,3.22,1,6.42,1.31,9.65.84,9.18,1.86,18.32,2.27,27.56C1255.42,436.48,1255.88,440.26,1256.23,444.39Z" transform="translate(0 -299.51)"/><path class="cls-2" d="M1141.19,405.39a80.84,80.84,0,0,0,1.06,47.13c-2.23,1.37-4.55,1.4-6.73,2-5.85,1.67-11.74,3.15-17.57,4.9-1.72.52-2.52.26-3-2a100.2,100.2,0,0,1-1.59-35.51,68.62,68.62,0,0,1,2.26-8.61,3.62,3.62,0,0,1,2.85-2.82C1125.72,408.83,1133,407.21,1141.19,405.39Z" transform="translate(0 -299.51)"/><path class="cls-2" d="M1110.54,413.18c-.15,3.2-1.68,5.93-2,9.1-1.22,11.49-1.07,22.86,1.44,34.09.23,1.08.43,2.17.67,3.24.3,1.33-.07,2.05-1.16,2.43-5.76,2-11.52,4.15-17.27,6.25-1.08.39-1.65-.07-2-1.42-3.08-13.29-3.82-26.57-.39-40,.83-3.21,3.28-5.35,3.45-8.91,0-.69.64-1,1.14-1.09,5.21-1.43,10.33-3.43,15.69-3.94C1110.24,412.94,1110.36,413.08,1110.54,413.18Z" transform="translate(0 -299.51)"/><path class="cls-2" d="M1196.45,752.1c24.69-11,48.89-6.15,72.93,3.28C1245.05,754.86,1220.76,753,1196.45,752.1Z" transform="translate(0 -299.51)"/><path class="cls-2" d="M1204,694.56c-4,3.62-7.75,3.37-11.47.9-3-2-3.3-8-.69-10.63.9-.91,1.68-.28,2.48.13A24.64,24.64,0,0,1,1204,694.56Z" transform="translate(0 -299.51)"/><path class="cls-2" d="M1198,746c-.42.3-.89.54-1.17-.12-.09-.21.25-.69.39-1Z" transform="translate(0 -299.51)"/><path class="cls-2" d="M1139.36,541c.5,1.49-.49,2.53.06,3.56.44.81,1.1,1.66,1.85.73,3.73-4.56,8.65-3.86,13.21-4.75.1,0,.22.14.34.21a3.07,3.07,0,0,1,0,.85c-2.58,9,1.45,16.73,7.53,21.24a24.63,24.63,0,0,0,23.29,3.9,41.94,41.94,0,0,0,15.71-9.63c2.43-2.26,2.54-2.25,4.57.67,6.38,9.23,6.94,19.6,2.57,30.71a46.85,46.85,0,0,1-21.26,24.36c-20,11.38-39.8,11.3-59.14-2.47a38.22,38.22,0,0,1-13.28-16.7c-5.54-13.22-3.75-25.25,3.74-35.69A52.89,52.89,0,0,1,1135,543.37C1136.37,542.55,1137.78,541.82,1139.36,541Z" transform="translate(0 -299.51)"/><path class="cls-2" d="M1282.32,540.25c-1,.9-.75,1.89,0,2.74a.78.78,0,0,0,1.35-.12c1.35-3,3.85-2.74,6-3.31,2.45-.65,4.92-1.52,7.44-1.26.13.48.31.8.26,1-2.12,8.27.23,15.17,6.53,20.47,7.08,6,14.93,7.13,23.14,5,6.09-1.6,11.49-5.13,16.51-9.69,2.85-2.58,2.5-3,5.14.84,5.95,8.68,6.51,19.12,2.65,29.52a45.21,45.21,0,0,1-17.17,22.37c-20,13.55-40.31,15.19-60.94,2.34a39.63,39.63,0,0,1-15.42-17.35c-6.51-14.09-4.58-26.49,3.64-37.65,4.83-6.57,10.9-10.95,17.21-14.88.9-.56,2-.75,2.66-1.81C1282.13,538.62,1282.25,539.41,1282.32,540.25Z" transform="translate(0 -299.51)"/><path class="cls-3" d="M1288,535.32a15.2,15.2,0,0,1,9.37-2.37,17.78,17.78,0,0,1-9.11,2.78Z" transform="translate(0 -299.51)"/><path class="cls-3" d="M1282.32,540.25c-.07-.84-.19-1.63-1-1.79,1.08-1.45,2.47-1.77,4.32-2C1285,538.8,1283.27,539,1282.32,540.25Z" transform="translate(0 -299.51)"/><path class="cls-3" d="M1288.27,535.73c-.29.47-.81,1-1.07.44s.49-.6.81-.85Z" transform="translate(0 -299.51)"/></svg>